HIERARCHY
ROOT Hips
{
  OFFSET 5.80788e-005 67.184 3.4734
  CHANNELS 6 Xposition Yposition Zposition Zrotation Xrotation Yrotation
  JOINT Chest
  {
    OFFSET 0 8.7983 -4.7612
    CHANNELS 6 Xposition Yposition Zposition Zrotation Xrotation Yrotation
    JOINT Chest2
    {
      OFFSET 0 8.0291 0.4195
      CHANNELS 6 Xposition Yposition Zposition Zrotation Xrotation Yrotation
      JOINT Chest3
      {
        OFFSET 0 9.9351 -2.2114
        CHANNELS 6 Xposition Yposition Zposition Zrotation Xrotation Yrotation
        JOINT Neck
        {
          OFFSET 0 22.3885 -0.4656
          CHANNELS 6 Xposition Yposition Zposition Zrotation Xrotation Yrotation
          JOINT Head
          {
            OFFSET -0.0001 12.643 3.4389
            CHANNELS 6 Xposition Yposition Zposition Zrotation Xrotation Yrotation
            End Site
            {
              OFFSET 0.0001 17.6655 0.5274
            }
          }
        }
        JOINT LeftCollar
        {
          OFFSET 2.2603 21.606 7.4023
          CHANNELS 6 Xposition Yposition Zposition Zrotation Xrotation Yrotation
          JOINT LeftShoulder
          {
            OFFSET 13.5163 -1.1332 -5.0146
            CHANNELS 6 Xposition Yposition Zposition Zrotation Xrotation Yrotation
            JOINT LeftElbow
            {
              OFFSET -0.0995 -28.05 -0.2431
              CHANNELS 6 Xposition Yposition Zposition Zrotation Xrotation Yrotation
              JOINT LeftWrist
              {
                OFFSET 0.0679 -23.3996 -0.1402
                CHANNELS 6 Xposition Yposition Zposition Zrotation Xrotation Yrotation
                JOINT LeftFinger1
                {
                  OFFSET 0.7932 -9.069 2.5189
                  CHANNELS 6 Xposition Yposition Zposition Zrotation Xrotation Yrotation
                  JOINT LeftFinger11
                  {
                    OFFSET -0.8272 -3.3923 0.5977
                    CHANNELS 6 Xposition Yposition Zposition Zrotation Xrotation Yrotation
                    JOINT LeftFinger12
                    {
                      OFFSET -0.5649 -2.3158 0.4082
                      CHANNELS 6 Xposition Yposition Zposition Zrotation Xrotation Yrotation
                      End Site
                      {
                        OFFSET -0.4919 -1.6479 0.2673
                      }
                    }
                  }
                }
                JOINT LeftFinger2
                {
                  OFFSET 0.9159 -9.2044 0.2193
                  CHANNELS 6 Xposition Yposition Zposition Zrotation Xrotation Yrotation
                  JOINT LeftFinger21
                  {
                    OFFSET 0.0117 -4.1944 -0.0248
                    CHANNELS 6 Xposition Yposition Zposition Zrotation Xrotation Yrotation
                    JOINT LeftFinger22
                    {
                      OFFSET 0.0071 -2.3249 -0.0142
                      CHANNELS 6 Xposition Yposition Zposition Zrotation Xrotation Yrotation
                      End Site
                      {
                        OFFSET -0.1475 -2.0882 0.0028
                      }
                    }
                  }
                }
                JOINT LeftFinger3
                {
                  OFFSET 0.6113 -8.7231 -2.0637
                  CHANNELS 6 Xposition Yposition Zposition Zrotation Xrotation Yrotation
                  JOINT LeftFinger31
                  {
                    OFFSET -0.1927 -3.8059 -0.2383
                    CHANNELS 6 Xposition Yposition Zposition Zrotation Xrotation Yrotation
                    JOINT LeftFinger32
                    {
                      OFFSET -0.1091 -2.1688 -0.1362
                      CHANNELS 6 Xposition Yposition Zposition Zrotation Xrotation Yrotation
                      End Site
                      {
                        OFFSET -0.2358 -1.9176 -0.0906
                      }
                    }
                  }
                }
                JOINT LeftFinger4
                {
                  OFFSET -0.6151 -8.0947 -3.5641
                  CHANNELS 6 Xposition Yposition Zposition Zrotation Xrotation Yrotation
                  JOINT LeftFinger41
                  {
                    OFFSET -0.4882 -2.341 -0.6462
                    CHANNELS 6 Xposition Yposition Zposition Zrotation Xrotation Yrotation
                    JOINT LeftFinger42
                    {
                      OFFSET -0.3575 -1.7167 -0.4742
                      CHANNELS 6 Xposition Yposition Zposition Zrotation Xrotation Yrotation
                      End Site
                      {
                        OFFSET -0.4187 -1.5237 -0.3496
                      }
                    }
                  }
                }
                JOINT LeftFinger0
                {
                  OFFSET -1.42 -1.8761 1.4223
                  CHANNELS 6 Xposition Yposition Zposition Zrotation Xrotation Yrotation
                  JOINT LeftFinger01
                  {
                    OFFSET -1.1471 -3.4929 2.6334
                    CHANNELS 6 Xposition Yposition Zposition Zrotation Xrotation Yrotation
                    JOINT LeftFinger02
                    {
                      OFFSET -0.823 -2.3 1.6571
                      CHANNELS 6 Xposition Yposition Zposition Zrotation Xrotation Yrotation
                      End Site
                      {
                        OFFSET -0.5822 -1.6914 1.1582
                      }
                    }
                  }
                }
              }
            }
          }
        }
        JOINT RightCollar
        {
          OFFSET -2.2603 21.606 7.4023
          CHANNELS 6 Xposition Yposition Zposition Zrotation Xrotation Yrotation
          JOINT RightShoulder
          {
            OFFSET -13.5187 -1.1334 -5.0155
            CHANNELS 6 Xposition Yposition Zposition Zrotation Xrotation Yrotation
            JOINT RightElbow
            {
              OFFSET 0.0994 -28.0499 -0.2431
              CHANNELS 6 Xposition Yposition Zposition Zrotation Xrotation Yrotation
              JOINT RightWrist
              {
                OFFSET -0.0679 -23.3996 -0.1402
                CHANNELS 6 Xposition Yposition Zposition Zrotation Xrotation Yrotation
                JOINT RightFinger1
                {
                  OFFSET -0.7932 -9.0691 2.5189
                  CHANNELS 6 Xposition Yposition Zposition Zrotation Xrotation Yrotation
                  JOINT RightFinger11
                  {
                    OFFSET 0.8272 -3.3923 0.5977
                    CHANNELS 6 Xposition Yposition Zposition Zrotation Xrotation Yrotation
                    JOINT RightFinger12
                    {
                      OFFSET 0.565 -2.3158 0.4082
                      CHANNELS 6 Xposition Yposition Zposition Zrotation Xrotation Yrotation
                      End Site
                      {
                        OFFSET 0.4919 -1.6479 0.2673
                      }
                    }
                  }
                }
                JOINT RightFinger2
                {
                  OFFSET -0.916 -9.2044 0.2193
                  CHANNELS 6 Xposition Yposition Zposition Zrotation Xrotation Yrotation
                  JOINT RightFinger21
                  {
                    OFFSET -0.0117 -4.1944 -0.0248
                    CHANNELS 6 Xposition Yposition Zposition Zrotation Xrotation Yrotation
                    JOINT RightFinger22
                    {
                      OFFSET -0.0071 -2.3249 -0.0142
                      CHANNELS 6 Xposition Yposition Zposition Zrotation Xrotation Yrotation
                      End Site
                      {
                        OFFSET 0.1475 -2.0882 0.0028
                      }
                    }
                  }
                }
                JOINT RightFinger3
                {
                  OFFSET -0.6113 -8.7231 -2.0637
                  CHANNELS 6 Xposition Yposition Zposition Zrotation Xrotation Yrotation
                  JOINT RightFinger31
                  {
                    OFFSET 0.1927 -3.8059 -0.2383
                    CHANNELS 6 Xposition Yposition Zposition Zrotation Xrotation Yrotation
                    JOINT RightFinger32
                    {
                      OFFSET 0.1091 -2.1688 -0.1362
                      CHANNELS 6 Xposition Yposition Zposition Zrotation Xrotation Yrotation
                      End Site
                      {
                        OFFSET 0.2358 -1.9176 -0.0906
                      }
                    }
                  }
                }
                JOINT RightFinger4
                {
                  OFFSET 0.6151 -8.0947 -3.564
                  CHANNELS 6 Xposition Yposition Zposition Zrotation Xrotation Yrotation
                  JOINT RightFinger41
                  {
                    OFFSET 0.4882 -2.341 -0.6462
                    CHANNELS 6 Xposition Yposition Zposition Zrotation Xrotation Yrotation
                    JOINT RightFinger42
                    {
                      OFFSET 0.3574 -1.7166 -0.4742
                      CHANNELS 6 Xposition Yposition Zposition Zrotation Xrotation Yrotation
                      End Site
                      {
                        OFFSET 0.4187 -1.5237 -0.3496
                      }
                    }
                  }
                }
                JOINT RightFinger0
                {
                  OFFSET 1.4199 -1.8761 1.4221
                  CHANNELS 6 Xposition Yposition Zposition Zrotation Xrotation Yrotation
                  JOINT RightFinger01
                  {
                    OFFSET 1.1472 -3.4929 2.6336
                    CHANNELS 6 Xposition Yposition Zposition Zrotation Xrotation Yrotation
                    JOINT RightFinger02
                    {
                      OFFSET 0.8229 -2.3 1.6571
                      CHANNELS 6 Xposition Yposition Zposition Zrotation Xrotation Yrotation
                      End Site
                      {
                        OFFSET 0.5822 -1.6914 1.1582
                      }
                    }
                  }
                }
              }
            }
          }
        }
      }
    }
  }
  JOINT RightHip
  {
    OFFSET -9.412 3.9771 -0.7758
    CHANNELS 6 Xposition Yposition Zposition Zrotation Xrotation Yrotation
    JOINT RightKnee
    {
      OFFSET -0.7531 -40.938 0
      CHANNELS 6 Xposition Yposition Zposition Zrotation Xrotation Yrotation
      JOINT RightAnkle
      {
        OFFSET 0 -40.1986 0
        CHANNELS 6 Xposition Yposition Zposition Zrotation Xrotation Yrotation
        JOINT RightToe
        {
          OFFSET 0 -4.4182 9.239
          CHANNELS 6 Xposition Yposition Zposition Zrotation Xrotation Yrotation
          End Site
          {
            OFFSET 0 0 6.1981
          }
        }
      }
    }
  }
  JOINT LeftHip
  {
    OFFSET 9.4119 3.9773 -0.7758
    CHANNELS 6 Xposition Yposition Zposition Zrotation Xrotation Yrotation
    JOINT LeftKnee
    {
      OFFSET 0.7532 -40.9383 0
      CHANNELS 6 Xposition Yposition Zposition Zrotation Xrotation Yrotation
      JOINT LeftAnkle
      {
        OFFSET 0 -40.1986 0
        CHANNELS 6 Xposition Yposition Zposition Zrotation Xrotation Yrotation
        JOINT LeftToe
        {
          OFFSET 0 -4.4182 9.239
          CHANNELS 6 Xposition Yposition Zposition Zrotation Xrotation Yrotation
          End Site
          {
            OFFSET 0 0 6.1981
          }
        }
      }
    }
  }
}
MOTION
Frames:	4
Frame Time:	0.0333333
5.80788e-005 67.184 3.4734 0 0 -0 0 8.7983 -4.7612 0 0 -0 0 8.0291 0.4195 0 0 -0 0 9.9351 -2.2114 0 0 -0 0 22.3885 -0.4656 0 0 -0 -0.0001 12.643 3.4389 0 0 -0 2.2603 21.606 7.4023 0 0 -12.5014 13.5163 -1.1332 -5.0146 88.1196 14.2451 10.6914 -0.0995 -28.05 -0.2431 -0.00160068 -0.00239207 0.000740045 0.0679 -23.3996 -0.1402 -8.4365e-005 7.00714e-005 -9.52055e-007 0.7932 -9.069 2.5189 9.93923e-017 -1.98785e-016 -1.59028e-015 -0.8272 -3.3923 0.5977 9.93923e-017 -5.96354e-016 -1.59028e-015 -0.5649 -2.3158 0.4082 -9.93923e-017 -5.96354e-016 -1.59028e-015 0.9159 -9.2044 0.2193 9.93923e-017 -1.98785e-016 -1.59028e-015 0.0117 -4.1944 -0.0248 -0.0128176 0.00232552 8.52707e-005 0.0071 -2.3249 -0.0142 9.93923e-017 5.96354e-016 -0 0.6113 -8.7231 -2.0637 9.93923e-017 -1.98785e-016 -1.59028e-015 -0.1927 -3.8059 -0.2383 -0.0160551 0.00299681 0.000857156 -0.1091 -2.1688 -0.1362 -2.48481e-016 0 3.18055e-015 -0.6151 -8.0947 -3.5641 9.93923e-017 -1.98785e-016 -1.59028e-015 -0.4882 -2.341 -0.6462 -0.0125865 0.0031206 0.00282719 -0.3575 -1.7167 -0.4742 0 1.98785e-016 -0 -1.42 -1.8761 1.4223 9.93923e-017 -1.98785e-016 -1.59028e-015 -1.1471 -3.4929 2.6334 9.93923e-017 -5.96354e-016 -1.59028e-015 -0.823 -2.3 1.6571 -9.93923e-017 -5.96354e-016 -1.59028e-015 -2.2603 21.606 7.4023 -0.865644 0.16582 7.03859 -13.5187 -1.1334 -5.0155 -88.0329 10.2057 -10.5567 0.0994 -28.0499 -0.2431 0.0015593 -0.00248883 -0.000788628 -0.0679 -23.3996 -0.1402 7.87605e-005 4.10553e-005 1.24965e-005 -0.7932 -9.0691 2.5189 -3.97569e-016 -7.95139e-016 3.18055e-015 0.8272 -3.3923 0.5977 -1.98785e-016 -3.97569e-016 3.18055e-015 0.565 -2.3158 0.4082 -1.98785e-016 0 3.18055e-015 -0.916 -9.2044 0.2193 -3.97569e-016 -7.95139e-016 3.18055e-015 -0.0117 -4.1944 -0.0248 0.0129473 0.00231697 -8.70038e-005 -0.0071 -2.3249 -0.0142 9.93923e-017 -7.95139e-016 1.59028e-015 -0.6113 -8.7231 -2.0637 -3.97569e-016 -7.95139e-016 3.18055e-015 0.1927 -3.8059 -0.2383 0.0163314 0.00303369 -0.000872333 0.1091 -2.1688 -0.1362 3.97569e-016 7.95139e-016 -3.18055e-015 0.6151 -8.0947 -3.564 -3.97569e-016 -7.95139e-016 3.18055e-015 0.4882 -2.341 -0.6462 0.0145763 0.00367772 -0.00326275 0.3574 -1.7166 -0.4742 9.93923e-017 -3.97569e-016 -0 1.4199 -1.8761 1.4221 -3.97569e-016 -7.95139e-016 3.18055e-015 1.1472 -3.4929 2.6336 -1.98785e-016 -3.97569e-016 3.18055e-015 0.8229 -2.3 1.6571 -1.98785e-016 0 3.18055e-015 -9.412 3.9771 -0.7758 3.42485 1.36937 -0.0640303 -0.7531 -40.938 0 0.000136572 0.69354 0.00145564 1.77636e-015 -40.1986 -1.11022e-016 -3.42573 -2.06297 -0.0607933 8.88178e-016 -4.4182 9.239 -3.19502e-024 0 -1.48106e-024 9.4119 3.9773 -0.7758 -3.42498 1.36123 0.0639712 0.7532 -40.9383 2.22045e-016 -6.769e-005 0.712612 -0.0012277 8.88179e-016 -40.1986 0 3.42582 -2.07388 0.0612819 -8.88178e-016 -4.4182 9.239 2.55305e-023 0 -2.31416e-026 
2.6288 47.4004 -11.978 -3.0323e-009 4.17574e-007 -1.03997e-009 0 8.7983 -4.7612 -0.00375008 0.545184 -0.0296239 -4.44089e-016 8.0291 0.4195 -0.0072188 1.09038 -0.0592167 0 9.9351 -2.2114 -0.0072188 1.09038 -0.0592168 -4.44089e-016 22.3885 -0.4656 -0.0335231 0.0176654 0.0903022 -0.0001 12.643 3.4389 3.88251e-019 -7.95139e-016 -0 2.2603 21.606 7.4023 -2.65288 -0.0644906 -12.5014 13.5163 -1.1332 -5.0146 80.4525 1.14828 12.1141 -0.0995 -28.05 -0.2431 -1.54633 -5.57641 21.272 0.0679 -23.3996 -0.1402 -2.28199 0.415625 -0.0627711 0.7932 -9.069 2.5189 1.59028e-015 3.18055e-015 -0 -0.8272 -3.3923 0.5977 2.12694e-006 6.89464e-007 -3.30504e-006 -0.5649 -2.3158 0.4082 -4.77083e-015 -4.77083e-015 1.59028e-014 0.9159 -9.2044 0.2193 1.59028e-015 3.18055e-015 -0 0.0117 -4.1944 -0.0248 -0.0128302 0.00233722 8.16472e-005 0.0071 -2.3249 -0.0142 6.36111e-015 -1.59028e-015 9.54166e-015 0.6113 -8.7231 -2.0637 1.59028e-015 3.18055e-015 -0 -0.1927 -3.8059 -0.2383 -0.0160258 0.00299368 0.000852522 -0.1091 -2.1688 -0.1362 -3.18055e-015 1.11319e-014 3.18055e-015 -0.6151 -8.0947 -3.5641 1.59028e-015 3.18055e-015 -0 -0.4882 -2.341 -0.6462 -0.0126415 0.00313958 0.00283108 -0.3575 -1.7167 -0.4742 -4.77083e-015 4.77083e-015 -1.27222e-014 -1.42 -1.8761 1.4223 1.59028e-015 3.18055e-015 -0 -1.1471 -3.4929 2.6334 2.12694e-006 6.89464e-007 -3.30504e-006 -0.823 -2.3 1.6571 -4.77083e-015 -4.77083e-015 1.59028e-014 -2.2603 21.606 7.4023 1.78608 0.101255 7.03762 -13.5187 -1.1334 -5.0155 -80.3397 -2.84341 -11.4177 0.0994 -28.0499 -0.2431 0.878843 -4.89448 0.129426 -0.0679 -23.3996 -0.1402 2.27926 0.410743 0.120274 -0.7932 -9.0691 2.5189 -7.55382e-015 1.59028e-015 -2.38542e-015 0.8272 -3.3923 0.5977 -3.77691e-015 1.59028e-015 -0 0.565 -2.3158 0.4082 -3.97569e-015 3.18055e-015 -1.59028e-015 -0.916 -9.2044 0.2193 -7.55382e-015 1.59028e-015 -2.38542e-015 -0.0117 -4.1944 -0.0248 0.0129333 0.00231217 -8.75039e-005 -0.0071 -2.3249 -0.0142 -4.57205e-015 -1.59028e-015 1.59028e-015 -0.6113 -8.7231 -2.0637 -7.55382e-015 1.59028e-015 -2.38542e-015 0.1927 -3.8059 -0.2383 0.0161745 0.00300325 -0.000865181 0.1091 -2.1688 -0.1362 3.69343e-006 7.16289e-007 -4.43536e-007 0.6151 -8.0947 -3.564 -7.55382e-015 1.59028e-015 -2.38542e-015 0.4882 -2.341 -0.6462 0.0145728 0.00367567 -0.00325951 0.3574 -1.7166 -0.4742 3.97569e-016 1.59028e-015 -0 1.4199 -1.8761 1.4221 -7.55382e-015 1.59028e-015 -2.38542e-015 1.1472 -3.4929 2.6336 -3.77691e-015 1.59028e-015 -0 0.8229 -2.3 1.6571 -3.97569e-015 3.18055e-015 -1.59028e-015 -9.412 3.9771 -0.7758 1.64412 -16.2458 -2.19852 -0.7531 -40.938 -8.88179e-016 0.931873 53.3451 -0.268659 8.88178e-016 -40.1986 -3.55271e-015 -5.90046 12.9726 -1.29673 -4.44089e-016 -4.4182 9.239 2.98177e-016 9.54166e-015 4.47266e-016 9.4119 3.9773 -0.7758 -1.6454 -16.1227 2.19911 0.7532 -40.9383 -4.44089e-016 -0.933473 53.2224 0.263119 -1.77636e-015 -40.1986 0 5.89933 12.9724 1.29608 1.77636e-015 -4.4182 9.239 -4.23128e-007 9.87997e-009 7.63878e-008 
5.32892 27.0363 -27.8433 -0 0 1.85002e-010 0 8.7983 -4.7612 -0.005715 1.10518 -0.0602416 8.88179e-016 8.0291 0.4195 -0.0102704 2.21038 -0.120407 0 9.9351 -2.2114 -0.0102704 2.21037 -0.120406 -8.88178e-016 22.3885 -0.4656 -0.0767057 0.0402784 0.20641 -0.0001 12.643 3.4389 -1.55301e-018 -7.95139e-016 -0 2.2603 21.606 7.4023 -5.37778 -0.130837 -12.5014 13.5163 -1.1332 -5.0146 73.2854 -12.5175 13.6194 -0.0995 -28.05 -0.2431 -2.87341 -11.4899 42.9695 0.0679 -23.3996 -0.1402 -4.62564 0.844553 -0.109607 0.7932 -9.069 2.5189 -4.0923e-006 -1.16225e-006 -3.9711e-006 -0.8272 -3.3923 0.5977 3.35387e-006 2.15422e-006 5.36036e-006 -0.5649 -2.3158 0.4082 9.54166e-015 3.18055e-015 3.18055e-015 0.9159 -9.2044 0.2193 -4.0923e-006 -1.16225e-006 -3.9711e-006 0.0117 -4.1944 -0.0248 -0.0128281 0.00234011 9.09427e-005 0.0071 -2.3249 -0.0142 -1.27222e-014 -6.36111e-015 -0 0.6113 -8.7231 -2.0637 -4.0923e-006 -1.16225e-006 -3.9711e-006 -0.1927 -3.8059 -0.2383 -0.0159828 0.00298102 0.000862736 -0.1091 -2.1688 -0.1362 3.18055e-015 3.18055e-015 -0 -0.6151 -8.0947 -3.5641 -4.0923e-006 -1.16225e-006 -3.9711e-006 -0.4882 -2.341 -0.6462 -0.0126637 0.00313896 0.0028495 -0.3575 -1.7167 -0.4742 0 6.36111e-015 -0 -1.42 -1.8761 1.4223 -4.0923e-006 -1.16225e-006 -3.9711e-006 -1.1471 -3.4929 2.6334 3.35387e-006 2.15422e-006 5.36036e-006 -0.823 -2.3 1.6571 9.54166e-015 3.18055e-015 3.18055e-015 -2.2603 21.606 7.4023 4.50979 0.034834 7.03664 -13.5187 -1.1334 -5.0155 -72.8577 -16.3581 -12.3636 0.0994 -28.0499 -0.2431 1.82058 -9.92668 0.343433 -0.0679 -23.3996 -0.1402 4.61967 0.837125 0.226711 -0.7932 -9.0691 2.5189 -1.39149e-015 6.36111e-015 3.97569e-016 0.8272 -3.3923 0.5977 -2.11075e-006 2.17014e-006 2.17114e-006 0.565 -2.3158 0.4082 -6.95746e-016 -6.36111e-015 -4.17448e-015 -0.916 -9.2044 0.2193 -1.39149e-015 6.36111e-015 3.97569e-016 -0.0117 -4.1944 -0.0248 0.0129472 0.00231673 -8.13102e-005 -0.0071 -2.3249 -0.0142 -2.5842e-015 3.18055e-015 -9.93923e-017 -0.6113 -8.7231 -2.0637 -1.39149e-015 6.36111e-015 3.97569e-016 0.1927 -3.8059 -0.2383 0.0163356 0.00304183 -0.000875429 0.1091 -2.1688 -0.1362 4.26919e-007 5.30926e-007 7.3924e-007 0.6151 -8.0947 -3.564 -1.39149e-015 6.36111e-015 3.97569e-016 0.4882 -2.341 -0.6462 0.0145638 0.0036836 -0.00325815 0.3574 -1.7166 -0.4742 7.35503e-015 9.54166e-015 -6.95746e-016 1.4199 -1.8761 1.4221 -1.39149e-015 6.36111e-015 3.97569e-016 1.1472 -3.4929 2.6336 -2.11075e-006 2.17014e-006 2.17114e-006 0.8229 -2.3 1.6571 -6.95746e-016 -6.36111e-015 -4.17448e-015 -9.412 3.9771 -0.7758 -0.864712 -33.0599 -5.53711 -0.7531 -40.938 -5.32907e-015 -172.035 74.7933 172.022 0 -40.1986 3.77476e-015 -7.08248 29.5938 -3.62872 -4.44089e-016 -4.4182 9.239 -1.30247e-006 2.02585e-005 -1.31347e-006 9.4119 3.9773 -0.7758 0.860275 -33.08 5.53231 0.7532 -40.9383 -8.88179e-016 172.054 74.7735 -172.042 3.55271e-015 -40.1986 2.88658e-015 7.08069 29.5935 3.6271 0 -4.4182 9.239 -7.48945e-007 -4.02975e-008 -5.82692e-007 
7.45812 10.9795 -40.3335 -0 0 6.24382e-010 0 8.7983 -4.7612 -0.00590959 1.54671 -0.0845061 0 8.0291 0.4195 -0.00954133 3.09342 -0.168945 8.88178e-016 9.9351 -2.2114 -0.00954133 3.09342 -0.168945 -8.88178e-016 22.3885 -0.4656 -0.0431115 0.0227307 0.116102 -0.0001 12.643 3.4389 6.21202e-018 -3.18055e-015 9.93923e-017 2.2603 21.606 7.4023 -7.5265 -0.182913 -12.5014 13.5163 -1.1332 -5.0146 68.1751 -23.4119 14.9911 -0.0995 -28.05 -0.2431 -3.69822 -16.2177 60.0299 0.0679 -23.3996 -0.1402 -6.47371 1.1839 -0.134059 0.7932 -9.069 2.5189 3.18055e-015 6.36111e-015 1.59028e-015 -0.8272 -3.3923 0.5977 -2.56414e-006 -4.90474e-006 -5.31572e-007 -0.5649 -2.3158 0.4082 3.90146e-007 -1.05182e-006 -7.56688e-007 0.915901 -9.2044 0.2193 3.18055e-015 6.36111e-015 1.59028e-015 0.0117 -4.1944 -0.0248 -0.0128105 0.00231254 7.7891e-005 0.0071 -2.3249 -0.0142 -9.37004e-006 -1.42532e-006 -2.17223e-006 0.6113 -8.7231 -2.0637 3.18055e-015 6.36111e-015 1.59028e-015 -0.1927 -3.8059 -0.2383 -0.0160003 0.00298473 0.000845356 -0.1091 -2.1688 -0.1362 -1.40559e-007 -1.28215e-005 2.1805e-006 -0.6151 -8.0947 -3.5641 3.18055e-015 6.36111e-015 1.59028e-015 -0.4882 -2.341 -0.6462 -0.0126572 0.00313144 0.00284109 -0.3575 -1.7167 -0.4742 -8.80465e-006 -3.95638e-006 -3.74538e-008 -1.42 -1.8761 1.4223 3.18055e-015 6.36111e-015 1.59028e-015 -1.1471 -3.4929 2.6334 -2.56414e-006 -4.90474e-006 -5.31572e-007 -0.823 -2.3 1.6571 3.90146e-007 -1.05182e-006 -7.56688e-007 -2.2603 21.606 7.4023 6.65757 -0.0172986 7.03583 -13.5187 -1.1334 -5.0155 -67.2499 -27.1163 -13.2329 0.0994 -28.0499 -0.2431 2.54778 -13.8793 0.573734 -0.0679 -23.3996 -0.1402 6.46481 1.17617 0.298318 -0.7932 -9.0691 2.5189 5.1684e-015 0 -4.77083e-015 0.8272 -3.3923 0.5977 2.31652e-006 7.35814e-006 7.0242e-006 0.565 -2.3158 0.4082 6.75868e-015 -9.54166e-015 -0 -0.916 -9.2044 0.2193 5.1684e-015 0 -4.77083e-015 -0.0117 -4.1944 -0.0248 0.0129627 0.00232361 -8.80868e-005 -0.0071 -2.3249 -0.0142 2.14687e-014 3.18055e-015 -1.55052e-014 -0.6113 -8.7231 -2.0637 5.1684e-015 0 -4.77083e-015 0.1927 -3.8059 -0.2383 0.0163426 0.00303757 -0.000866955 0.1091 -2.1688 -0.1362 -4.37326e-015 -1.90833e-014 -1.19271e-015 0.6151 -8.0947 -3.564 5.1684e-015 0 -4.77083e-015 0.4882 -2.341 -0.6462 0.0146226 0.00369915 -0.00326751 0.3574 -1.7166 -0.4742 9.14409e-015 6.36111e-015 -2.38542e-015 1.4199 -1.8761 1.4221 5.1684e-015 0 -4.77083e-015 1.1472 -3.4929 2.6336 2.31652e-006 7.35814e-006 7.0242e-006 0.8229 -2.3 1.6571 6.75868e-015 -9.54166e-015 -0 -9.412 3.9771 -0.7758 -3.87694 -45.426 -11.5929 -0.7531 -40.938 7.10543e-015 -175.142 34.3338 171.957 0 -40.1986 0 -5.55145 42.3734 -8.17873 8.88178e-016 -4.4182 9.239 4.28948e-007 -3.8293e-007 3.80745e-006 9.4119 3.9773 -0.7758 3.87189 -45.4239 11.5867 0.7532 -40.9383 -3.55271e-015 175.139 34.3351 -171.96 -3.55271e-015 -40.1986 3.55271e-015 5.55052 42.3729 8.17545 -1.77636e-015 -4.4182 9.239 -7.95139e-016 0 -3.97569e-015 
